<svg xmlns="http://www.w3.org/2000/svg" viewBox="0 0 439.19 379.85"><defs><style>.cls-1{fill:#c56c30;}.cls-2{fill:#3d8eb7;}.cls-3{fill:#fff;}</style></defs><title>Ativo 4</title><g id="Camada_2" data-name="Camada 2"><g id="Camada_2-2" data-name="Camada 2"><path class="cls-1" d="M378.78,160.16V9.49c0-6.21-3.28-9.49-9.49-9.49H306.65c-5.74,0-9,2.87-10.45,8.54L243.47,245l-11.94-53.56-11.95-53.63L190.8,8.54C189.37,2.87,186,0,180.35,0h-62.7c-6.15,0-9.5,3.28-9.5,9.49V370.35c0,5.38,2.57,8.6,7.35,9.32a.18.18,0,0,0,.24,0,9.75,9.75,0,0,0,1.91.18h43.71c6.15,0,9.49-3.35,9.49-9.5V156.69h3.29l45.2,206.44,1.79,8.18c1.44,5.55,4.66,8.42,10.16,8.54h23.58c5.74,0,9-2.87,10.45-8.54l2.57-11.71,23.89-109.1,20.54-93.81h3.34V370.35c0,5.56,2.63,8.78,7.71,9.38a15.62,15.62,0,0,0,1.79.12h44.13c6.21,0,9.49-3.35,9.49-9.5V180H331V160.16Z"/><path class="cls-2" d="M321.52,0H258.87c-5.73,0-9,2.87-10.45,8.54L219.58,137.82l-11.94,53.63L195.7,245,143,8.54C141.59,2.87,138.25,0,132.58,0H69.88c-6.16,0-9.5,3.28-9.5,9.49V60.13h47.77V80H60.38V370.35c0,6.15,3.34,9.5,9.5,9.5h43.71a9.9,9.9,0,0,0,1.91-.18.18.18,0,0,0,.24,0c4.77-.72,7.34-3.94,7.34-9.32V156.69h3.29L147,250.8l23.88,109,2.51,11.47c1.44,5.67,4.78,8.54,10.45,8.54H207.4c5.55-.12,8.72-3,10.15-8.54l1.79-8.18,45.21-206.44h3.34V370.35c0,6.15,3.29,9.5,9.5,9.5h44.13a18.16,18.16,0,0,0,1.85-.12c5-.6,7.64-3.88,7.64-9.38V9.49C331,3.28,327.73,0,321.52,0Z"/><path class="cls-3" d="M354.9,160.16V9.49c0-6.21-3.29-9.49-9.5-9.49H282.76c-5.73,0-9,2.87-10.45,8.54L231.53,191.45,219.58,245l-11.94-53.56L166.91,8.54C165.48,2.87,162.14,0,156.46,0H93.76c-6.15,0-9.49,3.28-9.49,9.49V60.13h23.88V80H84.27V370.35c0,6.15,3.34,9.5,9.49,9.5h43.71c6.15,0,9.5-3.35,9.5-9.5V156.69h3.28l20.6,94.11,26.4,120.51c1.43,5.55,4.66,8.42,10.15,8.54h23.89c5.55-.12,8.71-3,10.15-8.54L267.89,250.5l20.54-93.81h3.35V370.35c0,6.15,3.28,9.5,9.49,9.5H345.4c6.21,0,9.5-3.35,9.5-9.5V180H331V160.16Z"/><rect class="cls-2" y="234.8" width="78.74" height="19.9"/><rect class="cls-1" x="360.45" y="214.89" width="78.74" height="19.9"/><rect class="cls-2" x="29.42" y="104.42" width="19.91" height="19.9"/><rect class="cls-1" x="389.87" y="132.29" width="19.9" height="19.91"/></g></g></svg>