<svg xmlns="http://www.w3.org/2000/svg" viewBox="0 0 2985.76 379.85"><defs><style>.cls-1{fill:#c56c30;}.cls-2{fill:#3d8eb7;}.cls-3{fill:#fff;}</style></defs><title>Ativo 3</title><g id="Camada_2" data-name="Camada 2"><g id="Camada_2-2" data-name="Camada 2"><path class="cls-1" d="M1791,0H1616.25c-4.71,0-7.58,2.87-7.58,7.58V55.06c0,4.77,2.87,7.58,7.58,7.58h55.12V372.26c0,5.2,2.81,7.59,7.59,7.59h49.38c5.19,0,7.58-2.39,7.58-7.59V327.12h-55.41V307.23h55.41V62.64H1791c5.26,0,7.64-2.81,7.64-7.58V7.58C1798.62,2.87,1796.24,0,1791,0Z"/><path class="cls-2" d="M1743.21,0H1568.48c-4.71,0-7.58,2.87-7.58,7.58V55.06c0,4.77,2.87,7.58,7.58,7.58h55.12V372.26c0,5.2,2.81,7.59,7.58,7.59h49.39c5.19,0,7.58-2.39,7.58-7.59V327.12h-7.64V307.23h7.64V62.64h55.06c5.25,0,7.64-2.81,7.64-7.58V7.58C1750.85,2.87,1748.46,0,1743.21,0Z"/><path class="cls-3" d="M1767.09,0H1592.37c-4.72,0-7.58,2.87-7.58,7.58V55.06c0,4.77,2.86,7.58,7.58,7.58h55.12V372.26c0,5.2,2.8,7.59,7.58,7.59h49.38c5.2,0,7.59-2.39,7.59-7.59V327.12h-31.53V307.23H1712V62.64h55c5.26,0,7.65-2.81,7.65-7.58V7.58C1774.74,2.87,1772.35,0,1767.09,0Z"/><rect class="cls-1" x="1719.86" y="216.89" width="78.74" height="19.9"/><rect class="cls-2" x="1569.31" y="126.29" width="78.74" height="19.9"/><rect class="cls-2" x="1574.84" y="167.12" width="19.91" height="19.9"/><rect class="cls-1" x="1764.76" y="157.17" width="19.91" height="19.9"/><path class="cls-1" d="M2454.43,0h-53.15c-44.66,0-68.37,23.71-68.37,68.37v243.1c0,44.61,23.71,68.38,68.37,68.38h53.15c44.66,0,68.43-23.77,68.43-68.38v-5h-45.5V286.57h45.5V68.37C2522.86,23.71,2499.09,0,2454.43,0Zm-49.51,316.67c-5.85-2.75-8.89-8.36-8.89-17.08V80.26c0-8.36,3-14.16,8.89-17a23.42,23.42,0,0,1,10.16-2h27.52c12.31,0,19,6.63,19,19V299.59c0,12.84-6.68,19-19,19h-27.52A24.56,24.56,0,0,1,2404.92,316.67Z"/><path class="cls-2" d="M2406.66,0h-53.15c-44.67,0-68.37,23.71-68.37,68.37v243.1c0,44.61,23.7,68.38,68.37,68.38h53.15c44.66,0,68.43-23.77,68.43-68.38V68.37C2475.09,23.71,2451.32,0,2406.66,0Zm7.16,80.26V299.59c0,8.72-3,14.33-8.9,17.08a24.38,24.38,0,0,1-10.09,1.91H2367.3c-12.36,0-19.05-6.15-19.05-19V80.26c0-12.36,6.69-19,19.05-19h27.53a23.25,23.25,0,0,1,10.09,2C2410.78,66.1,2413.82,71.9,2413.82,80.26Z"/><path class="cls-3" d="M2499,286.57V68.37C2499,23.71,2475.21,0,2430.54,0H2377.4C2332.73,0,2309,23.71,2309,68.37v243.1c0,44.61,23.71,68.38,68.38,68.38h53.14c44.67,0,68.44-23.77,68.44-68.38v-5h-21.62V286.57Zm-107.79,32c-12.36,0-19.05-6.15-19.05-19V80.26c0-12.36,6.69-19,19.05-19h27.53c12.3,0,19,6.63,19,19V299.59c0,12.84-6.69,19-19,19Z"/><rect class="cls-2" x="2220.9" y="157.17" width="78.74" height="19.9"/><rect class="cls-1" x="2503.3" y="101.44" width="78.74" height="19.9"/><rect class="cls-2" x="2253.64" y="266.65" width="19.9" height="19.91"/><rect class="cls-1" x="2542.67" y="51.29" width="19.9" height="19.9"/><path class="cls-1" d="M2919.86,50.16V7.58c0-4.71-2.87-7.58-7.64-7.58h-49.39c-5.19,0-7.58,2.87-7.58,7.58V208h-2.87l-21-58.82-23.88-66.82-27.23-76.2C2778.81,1.91,2776,0,2771.71,0h-47.42c-4.54.18-7.22,3-7.22,7.58V94.47h15.52v19.88h-15.52V372.26c0,4.72,2.86,7.59,7.64,7.59h49.39c5.19,0,7.58-2.87,7.58-7.59V170.9h2.39l72.61,202.8c1.38,4.12,4.12,6,8.18,6.15h47.36c4.77,0,7.64-2.87,7.64-7.59V70.11h-39.41v-20Z"/><path class="cls-2" d="M2864.44,0h-49.38c-5.19,0-7.58,2.87-7.58,7.58V208h-2.87L2732.47,6.15c-1.37-4.12-4.12-6-8.18-6.15h-47.35c-4.78,0-7.64,2.87-7.64,7.58V94.47h63.29v19.88H2669.3V372.26c0,4.72,2.86,7.59,7.64,7.59h49.38c5.2,0,7.59-2.87,7.59-7.59V170.9h2.39l21.49,60,23.89,66.76,27.23,76c1.43,4.24,4.3,6.15,8.54,6.15h47.41c4.54-.18,7.23-3,7.23-7.59V7.58C2872.09,2.87,2869.22,0,2864.44,0Z"/><path class="cls-3" d="M2896,50.16V7.58c0-4.71-2.86-7.58-7.64-7.58H2839c-5.2,0-7.59,2.87-7.59,7.58V208h-2.86l-21-58.82-51.12-143c-1.43-4.24-4.3-6.15-8.54-6.15h-47c-4.78,0-7.65,2.87-7.65,7.58V94.47h39.41v19.88h-39.41V372.26c0,4.72,2.87,7.59,7.65,7.59h49.38c5.2,0,7.58-2.87,7.58-7.59V170.9h2.39l21.5,60L2832.8,373.7c1.43,4.24,4.3,6.15,8.54,6.15h47c4.78,0,7.64-2.87,7.64-7.59V70.11h-15.52v-20Z"/><rect class="cls-1" x="2907.02" y="254.7" width="78.74" height="19.91"/><rect class="cls-2" x="2614.46" y="290.53" width="78.74" height="19.91"/><rect class="cls-1" x="2946.39" y="19.33" width="19.9" height="19.9"/><rect class="cls-1" x="2946.39" y="290.53" width="19.9" height="19.91"/><path class="cls-1" d="M378.78,160.16V9.49c0-6.21-3.28-9.49-9.49-9.49H306.65c-5.74,0-9,2.87-10.45,8.54L243.47,245l-11.94-53.56-11.95-53.63L190.8,8.54C189.37,2.87,186,0,180.35,0h-62.7c-6.15,0-9.5,3.28-9.5,9.49V370.35c0,5.38,2.57,8.6,7.35,9.32a.18.18,0,0,0,.24,0,9.75,9.75,0,0,0,1.91.18h43.71c6.15,0,9.49-3.35,9.49-9.5V156.69h3.29l45.2,206.44,1.79,8.18c1.44,5.55,4.66,8.42,10.16,8.54h23.58c5.74,0,9-2.87,10.45-8.54l2.57-11.71,23.89-109.1,20.54-93.81h3.34V370.35c0,5.56,2.63,8.78,7.71,9.38a15.62,15.62,0,0,0,1.79.12h44.13c6.21,0,9.49-3.35,9.49-9.5V180H331V160.16Z"/><path class="cls-2" d="M321.52,0H258.87c-5.73,0-9,2.87-10.45,8.54L219.58,137.82l-11.94,53.63L195.7,245,143,8.54C141.59,2.87,138.25,0,132.58,0H69.88c-6.16,0-9.5,3.28-9.5,9.49V60.13h47.77V80H60.38V370.35c0,6.15,3.34,9.5,9.5,9.5h43.71a9.9,9.9,0,0,0,1.91-.18.18.18,0,0,0,.24,0c4.77-.72,7.34-3.94,7.34-9.32V156.69h3.29L147,250.8l23.88,109,2.51,11.47c1.44,5.67,4.78,8.54,10.45,8.54H207.4c5.55-.12,8.72-3,10.15-8.54l1.79-8.18,45.21-206.44h3.34V370.35c0,6.15,3.29,9.5,9.5,9.5h44.13a18.16,18.16,0,0,0,1.85-.12c5-.6,7.64-3.88,7.64-9.38V9.49C331,3.28,327.73,0,321.52,0Z"/><path class="cls-3" d="M354.9,160.16V9.49c0-6.21-3.29-9.49-9.5-9.49H282.76c-5.73,0-9,2.87-10.45,8.54L231.53,191.45,219.58,245l-11.94-53.56L166.91,8.54C165.48,2.87,162.14,0,156.46,0H93.76c-6.15,0-9.49,3.28-9.49,9.49V60.13h23.88V80H84.27V370.35c0,6.15,3.34,9.5,9.49,9.5h43.71c6.15,0,9.5-3.35,9.5-9.5V156.69h3.28l20.6,94.11,26.4,120.51c1.43,5.55,4.66,8.42,10.15,8.54h23.89c5.55-.12,8.71-3,10.15-8.54L267.89,250.5l20.54-93.81h3.35V370.35c0,6.15,3.28,9.5,9.49,9.5H345.4c6.21,0,9.5-3.35,9.5-9.5V180H331V160.16Z"/><rect class="cls-2" y="234.8" width="78.74" height="19.9"/><rect class="cls-1" x="360.45" y="214.89" width="78.74" height="19.9"/><rect class="cls-2" x="29.42" y="104.42" width="19.91" height="19.9"/><rect class="cls-1" x="389.87" y="132.29" width="19.9" height="19.91"/><path class="cls-1" d="M2119.71,0H2070.8c-4.72,0-7.58,2.87-7.58,7.58v151h-60.79V7.58c0-4.71-2.81-7.58-7.59-7.58h-48.9c-5.68,0-8.07,2.87-8.07,7.58V372.26c0,4.72,2.39,7.59,8.07,7.59h48.9c4.78,0,7.59-2.87,7.59-7.59v-151h60.79v151c0,4.72,2.86,7.59,7.58,7.59h48.91c5.73,0,8.12-2.87,8.12-7.59V330.34h-57.45V310.46h57.45V196.88h-75.24V177h75.24V7.58C2127.83,2.87,2125.44,0,2119.71,0Z"/><path class="cls-2" d="M2080.06,177V7.58c0-4.71-2.39-7.58-8.13-7.58H2023c-4.72,0-7.59,2.87-7.59,7.58v151h-60.79V7.58c0-4.71-2.8-7.58-7.58-7.58h-48.91c-5.67,0-8.06,2.87-8.06,7.58V372.26c0,4.72,2.39,7.59,8.06,7.59h48.91c4.78,0,7.58-2.87,7.58-7.59v-151h60.79v151c0,4.72,2.87,7.59,7.59,7.59h48.9c5.74,0,8.13-2.87,8.13-7.59V330.34h-9.68V310.46h9.68V196.88h-27.47V177Z"/><path class="cls-3" d="M2103.94,177V7.58c0-4.71-2.39-7.58-8.12-7.58h-48.91c-4.71,0-7.58,2.87-7.58,7.58v151h-60.79V7.58c0-4.71-2.81-7.58-7.58-7.58h-48.91c-5.67,0-8.06,2.87-8.06,7.58V372.26c0,4.72,2.39,7.59,8.06,7.59H1971c4.77,0,7.58-2.87,7.58-7.59v-151h60.79v151c0,4.72,2.87,7.59,7.58,7.59h48.91c5.73,0,8.12-2.87,8.12-7.59V330.34h-33.56V310.46h33.56V196.88h-51.35V177Z"/><rect class="cls-2" x="1831.04" y="114.37" width="78.74" height="19.91"/><rect class="cls-1" x="2109.74" y="70.09" width="78.74" height="19.9"/><rect class="cls-2" x="1870.41" y="310.44" width="39.37" height="19.9"/><rect class="cls-2" x="1856.62" y="214.89" width="19.91" height="19.9"/><rect class="cls-1" x="2149.11" y="26.79" width="19.9" height="19.9"/><path class="cls-1" d="M639.59,99.66V63.12H758.3c5.73,0,7.58-3.29,7.58-8.06V7.58C765.88,2.87,764,0,758.3,0H583.57c-4.24,0-7.1,2.87-7.1,7.58V226.32h3.28v20h-3.28v126c0,4.72,2.86,7.59,7.1,7.59H758.3c5.73,0,7.58-2.87,7.58-7.59V324.79c0-5.25-1.85-7.64-7.58-7.64H639.59V221.24h90.7c4.78,0,7.59-2.86,7.59-8.06v-47c0-5.26-2.81-8.06-7.59-8.06h-90.7V119.55H592.47V99.66Z"/><path class="cls-2" d="M710.53,63.12c5.73,0,7.58-3.29,7.58-8.06V7.58c0-4.71-1.85-7.58-7.58-7.58H535.8c-4.24,0-7.11,2.87-7.11,7.58V226.32h51.06v20H528.69v126c0,2.87,1,5,2.81,6.27a7.2,7.2,0,0,0,4.3,1.32H710.53c5.73,0,7.58-2.87,7.58-7.59V324.79c0-5.25-1.85-7.64-7.58-7.64H591.81V221.24h90.71c4.78,0,7.58-2.86,7.58-8.06v-47c0-5.26-2.8-8.06-7.58-8.06H591.81v-95Z"/><path class="cls-3" d="M615.7,99.66V63.12H734.41c5.74,0,7.59-3.29,7.59-8.06V7.58C742,2.87,740.15,0,734.41,0H559.69c-4.24,0-7.11,2.87-7.11,7.58V226.32h27.17v20H552.58v126c0,4.72,2.87,7.59,7.11,7.59H734.41c5.74,0,7.59-2.87,7.59-7.59V324.79c0-5.25-1.85-7.64-7.59-7.64H615.7V221.24h90.71c4.77,0,7.58-2.86,7.58-8.06v-47c0-5.26-2.81-8.06-7.58-8.06H615.7V119.55H592.47V99.66Z"/><rect class="cls-2" x="471.61" y="275.03" width="78.74" height="19.91"/><rect class="cls-2" x="501.03" y="191.4" width="19.91" height="19.91"/><rect class="cls-1" x="732.07" y="265.08" width="19.9" height="19.9"/><rect class="cls-1" x="659.1" y="129.52" width="19.9" height="19.9"/><rect class="cls-1" x="781.39" y="33.26" width="19.91" height="19.9"/><path class="cls-1" d="M1132.17,73.15V68.37c0-44.66-24.25-68.37-68.38-68.37h-53.2C966,0,941.74,23.71,941.74,68.37v243.1c0,44.61,24.24,68.38,68.85,68.38h53.2c29.62,0,50.22-10.69,60.61-31.17H1060V328.79h70.76a105,105,0,0,0,1.38-17.32V260.18c0-4.72-2.87-7.59-7.59-7.59h-47.77c-5.07.12-7.34,3-7.34,7.59v38c0,12.84-6.63,19-19,19h-24.67c-4.71,0-8.54-.9-11.52-2.69-4.9-2.93-7.47-8.3-7.47-16.3V185.89H965.08V166h41.74V81.63c0-7.7,2.39-13.2,7.35-16.24,2.93-1.79,6.81-2.75,11.64-2.75h24.67c12.36,0,19,6.69,19,19v38c0,4.6,2.27,7.46,7.34,7.58h47.77c4.72,0,7.59-2.86,7.59-7.58V93.1h-39.36V73.15Z"/><path class="cls-2" d="M1029.34,127.25h47.77c4.54-.12,7.28-3,7.28-7.58V68.37C1084.39,23.71,1060.15,0,1016,0H962.81C918.21,0,894,23.71,894,68.37v243.1c0,44.61,24.25,68.38,68.85,68.38H1016c29.62,0,50.22-10.69,60.61-31.17H1060V328.79h23a105,105,0,0,0,1.37-17.32V260.18c0-4.6-2.74-7.47-7.28-7.59h-47.77c-5.26,0-7.65,2.87-7.65,7.59v38c0,7.94-2.56,13.31-7.4,16.3a22.67,22.67,0,0,1-11.59,2.69H978c-12.36,0-19-6.15-19-19V81.63c0-12.3,6.15-19,19-19h24.66a22.2,22.2,0,0,1,11.47,2.75c5,3,7.52,8.54,7.52,16.24v38C1021.69,124.39,1024.08,127.25,1029.34,127.25Z"/><path class="cls-3" d="M1108.28,73.15V68.37C1108.28,23.71,1084,0,1039.91,0H986.7c-44.61,0-68.85,23.71-68.85,68.37v243.1c0,44.61,24.24,68.38,68.85,68.38h53.21c29.62,0,50.22-10.69,60.61-31.17H1060V328.79h46.88a106.14,106.14,0,0,0,1.37-17.32V260.18c0-4.72-2.87-7.59-7.58-7.59h-47.48c-5.25,0-7.64,2.87-7.64,7.59v38c0,12.84-6.63,19-19,19h-24.66c-12.36,0-19-6.15-19-19V185.89H965.08V166h17.86V81.63c0-12.3,6.15-19,19-19h24.66c12.36,0,19,6.69,19,19v38c0,4.72,2.39,7.58,7.64,7.58h47.48c4.71,0,7.58-2.86,7.58-7.58V93.1h-15.47V73.15Z"/><rect class="cls-2" x="833.72" y="245.17" width="78.74" height="19.91"/><rect class="cls-1" x="1017.05" y="191.4" width="19.9" height="19.91"/><rect class="cls-1" x="1138.77" y="42.76" width="19.9" height="19.9"/><rect class="cls-2" x="868.55" y="211.3" width="19.9" height="19.9"/><path class="cls-1" d="M1497.29,371.79l-45.57-211h-56.79V140.87h52.49l-19.34-89.75-4.3-19.89-5.32-24.54c-1-4.78-3.76-6.69-8.06-6.69h-66c-4.3,0-7.11,1.91-8.07,6.69l-26.51,122.77H1312v19.95h-6.45l-37.68,174.43h4.72v19.88h-9l-6,28.07c-1.43,5.25,1,8.06,6.15,8.06h50.82c4.24,0,6.63-2.33,7.58-6.63l12.84-69.33h84.5l13.31,69.33c1,4.3,3.29,6.63,7.59,6.63h50.34C1496.33,379.85,1498.24,377,1497.29,371.79Zm-150.49-123,6.51-35.35,12-65.21,11.94-65.15,30.33,165.71Z"/><path class="cls-2" d="M1449.51,371.79l-45.56-211h-9V140.87h4.72l-29-134.18c-1-4.78-3.76-6.69-8.06-6.69h-66c-4.3,0-7.1,1.91-8.06,6.69l-26.51,122.77H1312v19.95h-54.22l-26.28,121.64-4.3,19.94-7.1,32.85h52.49v19.88h-56.79l-6,28.07c-1.44,5.25,1,8.06,6.15,8.06h50.82c4.24,0,6.62-2.33,7.58-6.63l12.84-69.33h84.5L1385,373.22c1,4.3,3.29,6.63,7.59,6.63h50.34C1448.56,379.85,1450.47,377,1449.51,371.79ZM1299,248.83l30.4-165.71,11.94,65.15,11.94,65.21,6.45,35.35Z"/><path class="cls-3" d="M1473.4,371.79l-45.56-211h-32.91V140.87h28.61l-29-134.18c-1-4.78-3.77-6.69-8.07-6.69h-66c-4.3,0-7.11,1.91-8.06,6.69L1286,129.46h26v19.95h-30.33L1244,323.84h28.61v19.88h-32.91l-6,28.07c-1.43,5.25,1,8.06,6.15,8.06h50.82c4.24,0,6.63-2.33,7.59-6.63L1311,303.89h84.5l13.32,69.33c1,4.3,3.28,6.63,7.58,6.63h50.34C1472.44,379.85,1474.36,377,1473.4,371.79Zm-150.48-123,18.45-100.56,11.94-65.15,12,65.15,18.39,100.56Z"/><rect class="cls-1" x="1411.26" y="31.2" width="78.74" height="19.91"/><rect class="cls-2" x="1191.09" y="271.06" width="49.32" height="19.9"/><rect class="cls-2" x="1191.09" y="218.31" width="19.9" height="19.9"/><rect class="cls-1" x="1508.58" y="328.78" width="19.9" height="19.9"/></g></g></svg>