<svg xmlns="http://www.w3.org/2000/svg" viewBox="0 0 416.99 153.44"><defs><style>.cls-1{fill:#373c41;}.cls-2{fill:#e0e0e0;}.cls-3{fill:#43494c;}.cls-4{fill:#fa968c;}.cls-5{fill:#fab9af;}.cls-6{fill:#fff;}.cls-7{fill:#aa321e;}.cls-8{fill:#ff9669;}.cls-9{fill:#88491c;}.cls-10{fill:#e3792f;}.cls-11{fill:#c8462d;}.cls-12{fill:#c8e6eb;}.cls-13{fill:#415050;}.cls-14{fill:#a5c8cd;}</style></defs><title>Oops-vec_1</title><g id="Camada_2" data-name="Camada 2"><g id="OBJECTS"><path class="cls-1" d="M51,136.7a53.89,53.89,0,0,1-20.84-3.89,44.13,44.13,0,0,1-16-11.22A51.66,51.66,0,0,1,3.71,103.52,73.85,73.85,0,0,1,0,79.3,72.45,72.45,0,0,1,3.71,55.24,50.18,50.18,0,0,1,14.1,37.51a43.32,43.32,0,0,1,16-10.88A56,56,0,0,1,51,22.91a56.25,56.25,0,0,1,20.77,3.72,42.72,42.72,0,0,1,16.12,11A51.13,51.13,0,0,1,98.26,55.32a71.71,71.71,0,0,1,3.71,24,73.85,73.85,0,0,1-3.71,24.22,51.66,51.66,0,0,1-10.39,18.07,44,44,0,0,1-16.12,11.22A54.14,54.14,0,0,1,51,136.7Zm0-25q10,0,15.62-8.69T72.26,79.3q0-15-5.66-23.22A18,18,0,0,0,51,47.9a18,18,0,0,0-15.61,8.18q-5.65,8.2-5.66,23.22T35.37,103Q41,111.72,51,111.71Z"/><path class="cls-1" d="M167.81,136.7A53.94,53.94,0,0,1,147,132.81a44.22,44.22,0,0,1-16-11.22,51.49,51.49,0,0,1-10.38-18.07,73.59,73.59,0,0,1-3.72-24.22,72.19,72.19,0,0,1,3.72-24.06,50,50,0,0,1,10.38-17.73,43.4,43.4,0,0,1,16-10.88,60,60,0,0,1,41.61,0,42.76,42.76,0,0,1,16.13,11,51.26,51.26,0,0,1,10.38,17.72,71.71,71.71,0,0,1,3.71,24,73.85,73.85,0,0,1-3.71,24.22,51.79,51.79,0,0,1-10.38,18.07,44.05,44.05,0,0,1-16.13,11.22A54.09,54.09,0,0,1,167.81,136.7Zm0-25q10,0,15.61-8.69t5.66-23.72q0-15-5.66-23.22a19,19,0,0,0-31.23,0q-5.66,8.2-5.65,23.22T152.19,103Q157.85,111.72,167.81,111.71Z"/><path class="cls-1" d="M238.37,134.67V24.94h40.18a79.83,79.83,0,0,1,17.06,1.77,38.49,38.49,0,0,1,14.18,6.08,31.16,31.16,0,0,1,9.7,11.31q3.63,7,3.63,17.3,0,10.14-3.63,17.39a33.6,33.6,0,0,1-9.7,11.9,41.92,41.92,0,0,1-14,6.93,60,60,0,0,1-16.54,2.27H267.41v34.78Zm29-57.74h10.47q8.61,0,12.75-4.05t4.13-11.48q0-7.42-4.56-10.46t-13-3h-9.79Z"/><path class="cls-1" d="M374.11,136.7a66.14,66.14,0,0,1-21.53-3.8,57.23,57.23,0,0,1-20-11.9l16.54-19.92a55.74,55.74,0,0,0,12.75,7.68,32.6,32.6,0,0,0,12.91,2.95q6.59,0,9.54-2a6.56,6.56,0,0,0,3-5.74,5.45,5.45,0,0,0-1-3.38A10.37,10.37,0,0,0,383.31,98a32.94,32.94,0,0,0-4.64-2.28q-2.71-1.1-6.25-2.45l-13.68-5.74a40.78,40.78,0,0,1-8.44-4.47,33.16,33.16,0,0,1-7.09-6.59,30.41,30.41,0,0,1-4.81-8.69A31.63,31.63,0,0,1,336.63,57a29.52,29.52,0,0,1,3-13.25A33.78,33.78,0,0,1,348.11,33,40.57,40.57,0,0,1,361,25.61a48.37,48.37,0,0,1,16.46-2.7,55.5,55.5,0,0,1,19.17,3.55A47,47,0,0,1,414,37.6L399.43,55.83a52.58,52.58,0,0,0-10.72-5.91,30.38,30.38,0,0,0-11.23-2q-5.4,0-8.44,1.85a6.12,6.12,0,0,0-3,5.57c0,2.6,1.44,4.59,4.31,6s6.84,3.07,11.9,5l13.34,5.23q10.29,4.05,15.87,11.31T417,101.58a32.54,32.54,0,0,1-11.23,24.57,41.61,41.61,0,0,1-13.42,7.68A53.54,53.54,0,0,1,374.11,136.7Z"/><path class="cls-2" d="M126.37,146.89c0,1.41-8.51,2.55-19,2.55s-19-1.14-19-2.55,8.51-2.56,19-2.56S126.37,145.48,126.37,146.89Z"/><path class="cls-3" d="M107.83,58.77a6.43,6.43,0,1,1-6.43-6.43A6.43,6.43,0,0,1,107.83,58.77Z"/><path class="cls-3" d="M117.68,57.7a6.43,6.43,0,1,1-6.43-6.43A6.44,6.44,0,0,1,117.68,57.7Z"/><circle class="cls-3" cx="104.82" cy="51.51" r="5.26"/><path class="cls-4" d="M116.74,116.87c-.46,3.3-4.72,29-5.78,28.59s-1.65-26.27-1.19-29.57,2.4-5.75,4.32-5.48S117.21,113.57,116.74,116.87Z"/><path class="cls-4" d="M117.92,93c0,5.32.13,23.84-3.71,23.84S104,94.43,104,89.11s5.9-13.5,9.75-13.5S117.92,87.64,117.92,93Z"/><path class="cls-4" d="M110.21,139.55a26.31,26.31,0,0,1-.58,4.78c-.48,1.69-.12,2.4,1.63,2.52s6.14.78,6.65.27-1.54-1.32-3-1.93a4.93,4.93,0,0,1-2.61-4.32Z"/><path class="cls-5" d="M118.27,60.19c1.24,3.09,5,11.77,3.14,12.49s-8.44-6.78-9.68-9.87-.77-6.19,1-6.91S117,57.1,118.27,60.19Z"/><path class="cls-4" d="M118.56,66.15l-2.09-4.7.17-1.91a3.44,3.44,0,0,0-3.43-3.79H101.07a2.69,2.69,0,0,0-2.55,3.56l5.74,16.78,1.79,5.74,8.16,1.3,1.33-12.94h.12A3.06,3.06,0,0,0,118.56,66.15Z"/><path class="cls-6" d="M118.56,66.15l-2.09-4.7.17-1.91a3.44,3.44,0,0,0-3.43-3.79h-2a3.08,3.08,0,0,1-3.07,3.58h-.06a3.06,3.06,0,0,1-3.06-3.58h-4a2.69,2.69,0,0,0-2.55,3.56l5.74,16.78,1.79,5.74,8.16,1.3,1.33-12.94h.12A3.06,3.06,0,0,0,118.56,66.15Z"/><path class="cls-5" d="M108.18,116.67c-.47,3.3-4.73,29-5.79,28.59s-1.65-26.27-1.19-29.57,2.4-5.75,4.33-5.48S108.64,113.37,108.18,116.67Z"/><path class="cls-5" d="M109.36,92.77c0,5.33.13,23.85-3.72,23.85S95.43,94.24,95.43,88.91s5.9-13.5,9.74-13.5S109.36,87.45,109.36,92.77Z"/><path class="cls-1" d="M116.56,113.26c1.43-5.65,1.36-16.43,1.36-20.29,0-5.33.26-14.21-2.93-17.36-1.69,0-8.4-.2-9.82-.2-3.84,0-9.74,8.18-9.74,13.5,0,3.91,3.42,17,6.76,23.67C101.72,113.45,116.8,114.12,116.56,113.26Z"/><path class="cls-5" d="M101.64,139.35a35.87,35.87,0,0,1-.58,5.91c-.48,1.7-4.13,7.11-2,7.11a64.82,64.82,0,0,0,5.45-5.06c1.21-1.61-.88-3.13-.68-6.64Z"/><path class="cls-7" d="M115,145.19c-.09,0-.17-.1-.26-.15a4.11,4.11,0,0,1-2.08.53,3.88,3.88,0,0,1-3-1.24c-.48,1.69-.12,2.4,1.63,2.52s6.14.78,6.65.27S116.37,145.8,115,145.19Z"/><path class="cls-7" d="M104,143.17a4.72,4.72,0,0,1-.25,1.05,4,4,0,0,1-4,3.76c-1.05,2.08-2.14,4.39-.78,4.39a64.82,64.82,0,0,0,5.45-5.06C105.33,146.14,104.49,145,104,143.17Z"/><path class="cls-4" d="M102.92,62.65c-.73,3.25-4.29,12.46-6.19,12s-1.42-10.34-.68-13.59,2.86-5.54,4.75-5.11S103.65,59.4,102.92,62.65Z"/><path class="cls-3" d="M114.36,40.08a2.8,2.8,0,0,0-2.44.54A5.65,5.65,0,0,1,108.41,42h-.69a2.57,2.57,0,0,0-2.34,1.5L104,46.58h8.91v-1.1a2.75,2.75,0,0,0,.81.13,2.81,2.81,0,0,0,.69-5.53Z"/><polygon class="cls-4" points="110.43 56.76 105.01 56.19 107.83 50.66 110.43 51.19 110.43 56.76"/><circle class="cls-3" cx="113.56" cy="45.7" r="2.81"/><path class="cls-3" d="M114.91,49.84A2.81,2.81,0,1,1,112.1,47,2.8,2.8,0,0,1,114.91,49.84Z"/><path class="cls-3" d="M113.72,46.09c0,4.62-3.86,5.66-6.44,5.66s-2.4-3.82-2.4-5.81,2.07-3,4.66-3S113.72,44.1,113.72,46.09Z"/><path class="cls-5" d="M113.58,47.54c0,2.74-.91,7.12-3,7.12s-4.33-3.14-4.33-5.88,1.22-4.33,3.3-4.33S113.58,44.8,113.58,47.54Z"/><path class="cls-8" d="M106.34,47.71h5.27a4.42,4.42,0,0,0,2-.68c0-2-1-2.94-4-2.58A3.39,3.39,0,0,0,106.34,47.71Z"/><path class="cls-3" d="M108.16,43.37h6.09a0,0,0,0,1,0,0v1.19a2.63,2.63,0,0,1-2.63,2.63h-6.07a0,0,0,0,1,0,0V46A2.61,2.61,0,0,1,108.16,43.37Z"/><path class="cls-3" d="M107.28,49.26h0v-3h1.31v1.7A1.32,1.32,0,0,1,107.28,49.26Z"/><path class="cls-5" d="M107.78,48.68c0,.9-.29,1.64-1,1.64s-1-1-1-2,.32-1.33,1-1.33S107.78,47.77,107.78,48.68Z"/><path class="cls-4" d="M121.59,68c1.65-1.42,12.51-9.79,13.3-8.88s-8.81,10.76-10.46,12.18-3.63,1.83-4.41.92S119.94,69.46,121.59,68Z"/><path class="cls-4" d="M136,59s-2.11-.09-2.36.55-.28,1.11.63,1.49a7.25,7.25,0,0,0,3.23.37,5.61,5.61,0,0,0,2.34-1.11c.33-.68-1.23-.3-2-.16s-1.64.24-1.61-.15,1.52-.56,1.71-1S136,59,136,59Z"/><path class="cls-5" d="M85.67,57s1.82,1.07,1.68,1.74S87,59.81,86,59.63a7.07,7.07,0,0,1-2.91-1.45A5.38,5.38,0,0,1,81.74,56c.09-.74,1.19.42,1.75,1s1.26,1.09,1.44.75-1-1.3-.9-1.76S85.67,57,85.67,57Z"/><path class="cls-5" d="M93.34,72.38c-1.18-1.83-8-13.71-7-14.36S95.8,68.18,97,70s1.33,3.84.33,4.49S94.53,74.2,93.34,72.38Z"/><circle class="cls-3" cx="310.78" cy="12.3" r="5.51"/><path class="cls-3" d="M302.28,25.69c-.92-2.46.8-7.81.8-7.81L299,11.52a2.58,2.58,0,0,1,.26-2.77l.25-.32a5.45,5.45,0,0,0,1.28-3.68,2.82,2.82,0,0,1,1.08-2.39A2.77,2.77,0,0,1,304.68,2a2.81,2.81,0,0,1,1.06,4.3,2.6,2.6,0,0,1-.6.55l.87.69-3.86,4.9a5.3,5.3,0,0,1,5.12-.24,5.24,5.24,0,0,1,2.79,5.64A6.37,6.37,0,0,1,313.51,20a6.44,6.44,0,0,1-9,9.12A7.63,7.63,0,0,1,302.28,25.69Z"/><path class="cls-9" d="M318.73,4.42a121.41,121.41,0,0,1-13.36,1.5,5.73,5.73,0,0,0,.43-2.12A113.72,113.72,0,0,1,317.9.13c2.15-.42,4.08.21,4.31,1.39S320.88,4,318.73,4.42Z"/><path class="cls-9" d="M313.33,14.77c1-2.93,6.59-14.75,8.31-14.16S320.53,14,319.53,16.89s-3.2,4.83-4.91,4.25S312.33,17.7,313.33,14.77Z"/><path class="cls-5" d="M329.72,26.9C332,23.83,339.94,13.05,343,15.37s-.52,17.83-3.79,22.17c-4.39,5.84-10.59,4.24-13.69,1.92S327.41,30,329.72,26.9Z"/><path class="cls-10" d="M304,20.26l10.88-5.56c1.83-.93,5.07,2.53,5.07,2.53l4.47,4.35a3.07,3.07,0,0,1-.74,4.94l-.11.05,4.72,12.21-7.9,2.57L316.15,37l-12.81-12.4A2.7,2.7,0,0,1,304,20.26Z"/><path class="cls-9" d="M309.76,21.19c2.92,1.64,14.4,9.89,13.44,11.6s-14-3.78-16.91-5.42-4.51-4.35-3.55-6.06S306.84,19.55,309.76,21.19Z"/><path class="cls-4" d="M349.88,23.05c3.35-.11,27.68-1.87,27.37-.56-.24,1-3.62,1.15-6,2-6.5,2.21-18.66,5.59-21.1,5.67-3.35.11-6.12-1.38-6.18-3.34S346.54,23.16,349.88,23.05Z"/><path class="cls-5" d="M321.58,28.38c1.07-1.91,8.45-13.57,9.5-13s-4.61,13.21-5.69,15.12-2.79,3-3.84,2.38S320.51,30.29,321.58,28.38Z"/><path class="cls-9" d="M321.58,28.38c.71-1.26,4.16-6.77,6.73-10.2a9.37,9.37,0,0,0,2.37,2.2,73.55,73.55,0,0,1-5.29,10.14c-1.07,1.91-2.79,3-3.84,2.38S320.51,30.29,321.58,28.38Z"/><path class="cls-4" d="M330.2,31.22c3.86-2.33,17.22-10.54,19.22-7.23s-9.33,17.63-14.78,20.91c-7.35,4.42-12.85.82-14.85-2.49S326.34,33.54,330.2,31.22Z"/><path class="cls-3" d="M336.88,18.3a79.61,79.61,0,0,0-7.16,8.6,35.15,35.15,0,0,0-4.56,7.65c-3.46,2.55-6.68,5.69-5.37,7.86,2,3.31,7.5,6.91,14.85,2.49,3.36-2,8.95-8.24,12.28-13.49A21.79,21.79,0,0,1,336.88,18.3Z"/><path class="cls-5" d="M346.54,18C348.34,20.44,362,40.36,361,40.83S343,24.62,341.2,22.12s-2.07-5.46-.6-6.61S344.73,15.45,346.54,18Z"/><path class="cls-5" d="M358,35.49a31.36,31.36,0,0,0,4,3.65c1.37.84,7.22,2.11,5.78,3.49a57,57,0,0,1-6.89.15c-1.83-.3-1.31-2.71-3.6-5Z"/><path class="cls-11" d="M364.82,40.26c1.91.69,3.83,1.51,2.94,2.37a57,57,0,0,1-6.89.15c-1.21-.2-1.4-1.32-2.05-2.72A5.16,5.16,0,0,0,364.82,40.26Z"/><path class="cls-4" d="M372.22,22.08a30.9,30.9,0,0,0,5.12-1.81c1.39-.8,5.3-5.34,5.82-3.42A56.67,56.67,0,0,1,380,23c-1.13,1.46-3-.15-6.08.79Z"/><path class="cls-11" d="M379.68,18.31c1.52-1.35,3.16-2.65,3.48-1.46A56.67,56.67,0,0,1,380,23c-.75,1-1.83.59-3.37.5A5.15,5.15,0,0,0,379.68,18.31Z"/><rect class="cls-12" x="333.32" y="7.77" width="0.39" height="1.31" rx="0.09" transform="translate(662.18 -48.89) rotate(168.66)"/><path class="cls-12" d="M331.13,16.26a.42.42,0,0,1-.68-.25l-1.21-6.64a.41.41,0,0,1,.15-.4l3.15-2.52a.43.43,0,0,1,.68.25l1.32,6.59a.42.42,0,0,1-.15.41Z"/><path class="cls-6" d="M329.92,9.28a.41.41,0,0,1,.15-.4l2.86-2.29a.17.17,0,0,1,.17,0,.24.24,0,0,1,.12.14h0l1.32,6.59a.42.42,0,0,1-.15.41l-3.12,2.45a.45.45,0,0,1-.14-.23Z"/><path class="cls-5" d="M329.85,13.92a2.27,2.27,0,0,1-.31,1.59c-.34.54-.69,1.24-.5,1.66.34.73.7,1.16,1.79.71a8.49,8.49,0,0,0,3-2.43,12.37,12.37,0,0,0,1.58-3.57c-.3-.84-1.84,1.45-2.36,2.22s-1.44,1.76-1.74,1.41-.56-2.93-1.11-2.91S329.74,13.32,329.85,13.92Z"/><path class="cls-12" d="M331.46,10.25c.12.52.5.88.86.8s.55-.57.43-1.09-.51-.88-.86-.8S331.34,9.73,331.46,10.25Z"/><path class="cls-4" d="M311.88,16.23s3.17,2.66,2.63,3.64c-.69,1.25-5.69-.31-5.69-.31l-2.27-5.79,2.12-1.59Z"/><path class="cls-3" d="M307.48,4.26a2.81,2.81,0,1,1-3.94.47A2.8,2.8,0,0,1,307.48,4.26Z"/><path class="cls-3" d="M306.15,6.58c3.64,2.85,2.07,6.53.47,8.56s-4.49-.47-6.05-1.7-1.11-3.51.49-5.55S304.59,5.35,306.15,6.58Z"/><path class="cls-5" d="M307.21,7.58c2.15,1.69,5,5.11,3.75,6.75s-5.14,1.47-7.3-.23-2.65-3.62-1.37-5.26S305.05,5.89,307.21,7.58Z"/><path class="cls-3" d="M302.86,13.38l3.26-4.14a4.54,4.54,0,0,0,.67-1.95c-1.54-1.22-2.91-1.06-4.5,1.55A3.38,3.38,0,0,0,302.86,13.38Z"/><path class="cls-3" d="M301.42,7.18h6.09a0,0,0,0,1,0,0V8.37A2.63,2.63,0,0,1,304.87,11H298.8a0,0,0,0,1,0,0V9.79a2.61,2.61,0,0,1,2.61-2.61Z" transform="translate(108.8 241.92) rotate(-51.87)"/><path class="cls-3" d="M304.66,13.6h0l-2.37-1.86.81-1,1.34,1.05A1.32,1.32,0,0,1,304.66,13.6Z"/><path class="cls-5" d="M304.52,12.85c.71.56,1.11,1.24.66,1.82s-1.48.18-2.19-.38-.86-1.07-.4-1.65S303.8,12.29,304.52,12.85Z"/><path class="cls-3" d="M309.51,22.1a7.06,7.06,0,1,1-7.05-7A7.06,7.06,0,0,1,309.51,22.1Z"/><path class="cls-3" d="M302.46,15.14A3.45,3.45,0,1,1,299,11.7,3.45,3.45,0,0,1,302.46,15.14Z"/><path class="cls-5" d="M196.36,49.21c2.64-1,15.58-6.29,15-7.73S197.1,43,194.47,44s-4.35,2.9-3.83,4.35S193.73,50.17,196.36,49.21Z"/><path class="cls-5" d="M211.65,54.09c-3.38-1.86-19.8-8.36-21-6.14s13.21,12.33,16.59,14.19,7.1,1.57,8.32-.66S215,56,211.65,54.09Z"/><path class="cls-10" d="M200.23,57.48a82.69,82.69,0,0,0,7,4.66c3.37,1.86,7.1,1.57,8.32-.66S215,56,211.65,54.09a75.1,75.1,0,0,0-8.08-3.44C200.48,52.78,200.23,57.48,200.23,57.48Z"/><ellipse class="cls-2" cx="219.86" cy="152.15" rx="19.04" ry="1.29"/><path class="cls-5" d="M210.05,120.23c.43,3.06,4.39,26.94,5.37,26.57s1.54-24.42,1.11-27.48-2.23-5.35-4-5.1S209.62,117.16,210.05,120.23Z"/><path class="cls-3" d="M210.7,94.47c-.61,4.43-1.94,29.52,1.17,30s9.87-27.22,10.48-31.65-1.43-8.37-4.54-8.79S211.3,90,210.7,94.47Z"/><path class="cls-5" d="M216.08,141.9l0,5.82,1,3.31a.35.35,0,0,1-.34.46h-2.31v-.74l-1.11.74s-6,.33-6.17,0c-.76-1.24,2.7-1.72,5.24-2.7s.79-10.62.79-10.62Z"/><path class="cls-5" d="M222.87,120.23c.43,3.06,4.39,26.94,5.37,26.56s1.54-24.41,1.11-27.47-2.23-5.35-4-5.1S222.44,117.16,222.87,120.23Z"/><path class="cls-3" d="M213.48,143.6h2.92c.41-7.46.41-22.26.13-24.28-.43-3.07-2.23-5.35-4-5.1s-2.89,2.94-2.46,6C210.32,122.19,212,136.4,213.48,143.6Z"/><path class="cls-3" d="M220.44,91.76c-.1,4.47,1.43,32.82,4.57,32.89s6.71-24.89,6.81-29.36-2.37-11.42-5.51-11.5S220.54,87.29,220.44,91.76Z"/><path class="cls-5" d="M228.9,141.9l0,5.82,1,3.31a.35.35,0,0,1-.34.46h-2.3v-.74l-1.12.74s-6,.32-6.17,0c-.76-1.25,2.7-1.72,5.24-2.7s.79-10.62.79-10.62Z"/><path class="cls-13" d="M216.2,148.19a5.53,5.53,0,0,1-2.8.71,6.07,6.07,0,0,1-1.07-.1c-2.53,1-6,1.45-5.19,2.69.21.33,6.17,0,6.17,0l1.11-.74v.74h2.31a.35.35,0,0,0,.34-.46Z"/><path class="cls-13" d="M228.9,147.8a5.27,5.27,0,0,1-3.25,1c-.16,0-.31,0-.47,0-2.53,1-6,1.46-5.22,2.7.21.32,6.17,0,6.17,0l1.12-.74v.74h2.3a.35.35,0,0,0,.34-.46Z"/><path class="cls-4" d="M227.36,54.89l-16.63-1.18a4.88,4.88,0,0,0-5.08,6.06l7.18,28.47a7.49,7.49,0,0,0,7.47,5.65h0a7.48,7.48,0,0,0,7.19-6.46l3.81-27.69A4.28,4.28,0,0,0,227.36,54.89Z"/><path class="cls-10" d="M227.36,54.89l-5.09-.36a3.41,3.41,0,0,1-3.11,4.28c-2.91.19-4.15-2.61-3.48-4.75l-5-.35a4.88,4.88,0,0,0-5.08,6.06l7.18,28.47a7.49,7.49,0,0,0,7.47,5.65c3.65-.11,9.86-1.43,10.36-5l.64-29.1A4.28,4.28,0,0,0,227.36,54.89Z"/><path class="cls-3" d="M211.43,44.82a8.18,8.18,0,0,0,9.87,6.49c3.3-.72,1.92-6.6,1.37-9.13s-3.49-3.31-6.79-2.59S210.88,42.28,211.43,44.82Z"/><polygon class="cls-4" points="216.4 54.53 222.27 54.53 221.56 44.06 218 47.03 216.4 54.53"/><path class="cls-5" d="M231.61,68.1c4.91,5.17,11,7.32,12.3,6.12s-1.76-6.86-6.39-12c-4.79-5.27-9.5-8.55-11.38-6.76S226.7,62.93,231.61,68.1Z"/><path class="cls-10" d="M237.52,62.26c-4.79-5.27-9.5-8.55-11.38-6.76s.32,6.86,4.73,11.8C230.87,67.3,236.66,65.09,237.52,62.26Z"/><path class="cls-5" d="M234.62,73.23c-2.78.73-15.1,4.89-14.69,6.46s13.54-.48,16.27-1.35c5-1.59,8.39-3.57,8-5.14S237.39,72.5,234.62,73.23Z"/><path class="cls-5" d="M212.69,48.22c.92,4.24,2.2,6.15,4.38,5.68,2.65-.58,5.37-4.22,4.61-7.72s-2.74-5.18-5.4-4.6S211.93,44.72,212.69,48.22Z"/><path class="cls-8" d="M221.29,44.83l-6.72,1.46a3.37,3.37,0,0,1-2-.18,4.76,4.76,0,0,1,3.75-4.53C218.57,41.08,220.36,42.26,221.29,44.83Z"/><path class="cls-3" d="M210.41,40.23h7.92a3.43,3.43,0,0,1,3.43,3.43v1.56a0,0,0,0,1,0,0h-7.94a3.41,3.41,0,0,1-3.41-3.41V40.23A0,0,0,0,1,210.41,40.23Z" transform="translate(436.33 38.65) rotate(167.75)"/><path class="cls-3" d="M220.53,47.08h0l-.84-3.85-1.68.36.47,2.17A1.73,1.73,0,0,0,220.53,47.08Z"/><path class="cls-5" d="M219.72,46.47c.25,1.16.82,2,1.77,1.81s1.2-1.92.95-3.08-.92-1.31-1.86-1.11S219.47,45.31,219.72,46.47Z"/><path class="cls-14" d="M218,80.12h-8.58a1.13,1.13,0,0,1-1.13-1l-1.42-12A1.14,1.14,0,0,1,208,65.81h8.59a1.14,1.14,0,0,1,1.13,1l1.41,12A1.14,1.14,0,0,1,218,80.12Z"/><path class="cls-12" d="M217.45,80.59h-8.58a1.13,1.13,0,0,1-1.13-1l-1.42-12a1.14,1.14,0,0,1,1.13-1.27H216a1.14,1.14,0,0,1,1.13,1l1.41,12A1.14,1.14,0,0,1,217.45,80.59Z"/><path class="cls-5" d="M219.92,76.47S222,78.22,221.71,79s-.68,1.31-1.89.89a9.28,9.28,0,0,1-3.41-2.44,7.14,7.14,0,0,1-1.29-3.1c.27-.93,1.44.78,2,1.58s1.37,1.65,1.67,1.25-1-1.85-.78-2.42S219.92,76.47,219.92,76.47Z"/><path class="cls-3" d="M226.28,143.6h2.87c.41-7.46.48-22.26.2-24.28-.43-3.07-2.23-5.35-4-5.1s-2.89,2.94-2.46,6C223.14,122.19,224.81,136.4,226.28,143.6Z"/></g></g></svg>